<?xml version="1.0" encoding="UTF-8" standalone="no"?>
<svg
   viewBox="0 0 48 48"
   width="120px"
   height="120px"
   version="1.1"
   id="svg10"
   sodipodi:docname="icons8-linkedin.svg"
   inkscape:version="1.1.1 (3bf5ae0d25, 2021-09-20)"
   xmlns:inkscape="http://www.inkscape.org/namespaces/inkscape"
   xmlns:sodipodi="http://sodipodi.sourceforge.net/DTD/sodipodi-0.dtd"
   xmlns="http://www.w3.org/2000/svg"
   xmlns:svg="http://www.w3.org/2000/svg">
  <defs
     id="defs14" />
  <sodipodi:namedview
     id="namedview12"
     pagecolor="#ffffff"
     bordercolor="#666666"
     borderopacity="1.0"
     inkscape:pageshadow="2"
     inkscape:pageopacity="0.0"
     inkscape:pagecheckerboard="0"
     showgrid="false"
     inkscape:zoom="3.7416667"
     inkscape:cx="73.095768"
     inkscape:cy="87.52784"
     inkscape:window-width="1920"
     inkscape:window-height="1057"
     inkscape:window-x="-8"
     inkscape:window-y="-8"
     inkscape:window-maximized="1"
     inkscape:current-layer="svg10" />
  <path
     d="M 33.947235,45.55234 V 28.809487 c 0,-2.800146 -1.357797,-4.472939 -3.634056,-4.472939 -1.351166,0 -2.344231,0.760963 -2.949355,2.261338 -0.02818,0.106103 -0.06798,0.538808 -0.0514,1.84687 l 0.0033,17.107584 H 15.71064 V 14.052766 h 11.605106 v 1.759003 c 1.694345,-1.1688 3.771659,-1.759003 6.197126,-1.759003 7.538346,0 12.037811,5.127799 12.037811,13.717236 l 0.0017,17.782338 z m -31.4995735,0 V 14.052766 H 8.178926 c -3.3207182,0 -5.7312645,-2.440387 -5.7312645,-5.8042105 0,-3.3605071 2.4503352,-5.800895 5.8257631,-5.800895 3.3356394,0 5.7113704,2.3724151 5.7793424,5.7677375 0,3.388691 -2.451993,5.837368 -5.8274206,5.837368 H 14.052767 V 45.55234 Z"
     opacity="0.05"
     id="path4"
     style="stroke-width:1.65788" />
  <path
     d="M 34.776171,44.723403 V 28.809487 c 0,-3.270981 -1.709267,-5.301875 -4.462992,-5.301875 -2.146945,0 -3.207983,1.51198 -3.718608,2.780251 -0.135946,0.329917 -0.117709,1.639636 -0.111077,2.198339 l 0.0033,16.237201 h -9.947206 v -29.8417 h 9.947234 v 2.715594 c 1.318008,-1.364429 3.440085,-2.715594 7.026062,-2.715594 7.017774,0 11.208875,4.817776 11.208875,12.888299 l 0.0017,16.953401 z m -31.4995734,0 v -29.8417 h 9.9472334 v 29.8417 z M 8.178926,13.22383 c -2.8399352,0 -4.9023284,-2.092235 -4.9023284,-4.9752745 0,-2.8813821 2.1021821,-4.9719589 4.996827,-4.9719589 2.8581714,0 4.8923814,2.037525 4.9504064,4.9553802 0,2.8996182 -2.102182,4.9918532 -4.9984846,4.9918532 z"
     opacity="0.07"
     id="path6"
     style="stroke-width:1.65788" />
  <path
     fill="#fff"
     d="M 4.1055338,15.710639 H 12.394895 V 43.894467 H 4.1055338 Z m 4.1198126,-3.315745 h -0.046421 c -2.4735455,0 -4.0733922,-1.843554 -4.0733922,-4.1463385 0,-2.3525208 1.6495829,-4.1430228 4.1678909,-4.1430228 2.5216239,0 4.0750499,1.790502 4.1214709,4.1430228 0,2.3011265 -1.599847,4.1463385 -4.1695486,4.1463385 z M 43.894468,43.894467 h -8.289361 v -15.08498 c 0,-3.644003 -2.030893,-6.130811 -5.291928,-6.130811 -2.488467,0 -3.834659,1.677767 -4.48786,3.299165 -0.238734,0.580256 -0.167446,2.185077 -0.167446,2.995776 v 14.92085 H 17.368512 V 15.710639 h 8.289361 v 4.336994 c 1.195326,-1.850185 3.067064,-4.336994 7.854999,-4.336994 5.931867,0 10.379938,3.730212 10.379938,12.059363 l 0.0017,16.124465 z"
     id="path8"
     style="fill:#c6ece5;fill-opacity:1;stroke-width:1.65788" />
</svg>
