<?xml version="1.0" encoding="UTF-8" standalone="no"?>
<svg
   viewBox="0 0 48 48"
   width="120px"
   height="120px"
   version="1.1"
   id="svg4"
   sodipodi:docname="icons8-twitter.svg"
   inkscape:version="1.1.1 (3bf5ae0d25, 2021-09-20)"
   xmlns:inkscape="http://www.inkscape.org/namespaces/inkscape"
   xmlns:sodipodi="http://sodipodi.sourceforge.net/DTD/sodipodi-0.dtd"
   xmlns="http://www.w3.org/2000/svg"
   xmlns:svg="http://www.w3.org/2000/svg">
  <defs
     id="defs8" />
  <sodipodi:namedview
     id="namedview6"
     pagecolor="#ffffff"
     bordercolor="#666666"
     borderopacity="1.0"
     inkscape:pageshadow="2"
     inkscape:pageopacity="0.0"
     inkscape:pagecheckerboard="0"
     showgrid="false"
     inkscape:zoom="3.7416667"
     inkscape:cx="21.781737"
     inkscape:cy="77.906459"
     inkscape:window-width="1920"
     inkscape:window-height="1057"
     inkscape:window-x="-8"
     inkscape:window-y="-8"
     inkscape:window-maximized="1"
     inkscape:current-layer="svg4" />
  <path
     fill="#03a9f4"
     d="m 47.30879,9.164071 c -1.713163,0.7588163 -3.555818,1.265125 -5.499475,1.504683 1.97603,-1.1731865 3.496252,-3.0443288 4.209747,-5.2547372 -1.849129,1.0838382 -3.897674,1.8802068 -6.077004,2.299757 -1.740357,-1.8452442 -4.222696,-2.9899431 -6.973081,-2.9899431 -5.283226,0 -9.565487,4.2447092 -9.565487,9.4787283 0,0.740687 0.08676,1.461951 0.249917,2.162497 C 15.70526,15.966224 8.6557799,12.187682 3.9397241,6.4538281 3.1109829,7.8549188 2.6448159,9.4955675 2.6448159,11.22686 c 0,3.290362 1.6846756,6.187071 4.2537735,7.89376 -1.5681338,-0.04791 -3.0443292,-0.484295 -4.3366476,-1.183546 0,0.02849 0,0.07122 0,0.111362 0,4.598219 3.2981312,8.427263 7.6697412,9.298736 -0.7989582,0.21884 -1.6432383,0.340561 -2.5134167,0.340561 -0.6176712,0 -1.2198035,-0.06993 -1.8025122,-0.174812 1.2172137,3.757823 4.7484289,6.504324 8.9322769,6.585903 -3.273528,2.53802 -7.3965158,4.058242 -11.879488,4.058242 -0.7743551,0 -1.5318765,-0.04403 -2.28033341,-0.13467 4.23564481,2.681755 9.26506831,4.253773 14.66354041,4.253773 17.591329,0 27.215086,-14.445996 27.215086,-26.978118 0,-0.410486 -0.01295,-0.819677 -0.03237,-1.223688 1.877617,-1.325986 3.496252,-2.999007 4.774326,-4.910292"
     id="path2"
     style="stroke-width:1.29491;fill:#c6ece5;fill-opacity:1" />
</svg>
