<?xml version="1.0" encoding="UTF-8" standalone="no"?>
<!-- Created with Inkscape (http://www.inkscape.org/) -->

<svg
   version="1.1"
   id="svg2"
   xml:space="preserve"
   width="1437.3333"
   height="1437.3333"
   viewBox="0 0 1437.3333 1437.3333"
   sodipodi:docname="Logo_Portfolio.svg"
   inkscape:version="1.1.1 (3bf5ae0d25, 2021-09-20)"
   xmlns:inkscape="http://www.inkscape.org/namespaces/inkscape"
   xmlns:sodipodi="http://sodipodi.sourceforge.net/DTD/sodipodi-0.dtd"
   xmlns="http://www.w3.org/2000/svg"
   xmlns:svg="http://www.w3.org/2000/svg"><defs
     id="defs6"><clipPath
       clipPathUnits="userSpaceOnUse"
       id="clipPath18"><path
         d="M 0,1078 H 1078 V 0 H 0 Z"
         id="path16" /></clipPath><clipPath
       clipPathUnits="userSpaceOnUse"
       id="clipPath334"><path
         d="M 0,1078 H 1078 V 0 H 0 Z"
         id="path332" /></clipPath></defs><sodipodi:namedview
     id="namedview4"
     pagecolor="#ffffff"
     bordercolor="#666666"
     borderopacity="1.0"
     inkscape:pageshadow="2"
     inkscape:pageopacity="0.0"
     inkscape:pagecheckerboard="0"
     showgrid="false"
     inkscape:zoom="0.31238406"
     inkscape:cx="449.76686"
     inkscape:cy="459.37043"
     inkscape:window-width="1920"
     inkscape:window-height="1057"
     inkscape:window-x="-8"
     inkscape:window-y="-8"
     inkscape:window-maximized="1"
     inkscape:current-layer="g8" /><g
     id="g8"
     inkscape:groupmode="layer"
     inkscape:label="LogoEncerrado Blanco"
     transform="matrix(1.3333333,0,0,-1.3333333,0,1437.3333)"><g
       id="g328"
       transform="rotate(30,539,539)"><g
         id="g330"
         clip-path="url(#clipPath334)"><g
           id="g336"
           transform="translate(1078,539)"
           style="fill:#0c2722;fill-opacity:1"><path
             d="m 0,0 c 0,-297.682 -241.318,-539 -539,-539 -297.682,0 -539,241.318 -539,539 0,297.682 241.318,539 539,539 C -241.318,539 0,297.682 0,0"
             style="fill:#0c2722;fill-opacity:1;fill-rule:nonzero;stroke:none"
             id="path338" /></g><g
           id="g340"
           transform="translate(1078,539)" /><g
           id="g344"
           transform="translate(511.5073,95.9492)"><path
             d="m 0,0 c -82.565,0 -149.738,67.172 -149.738,149.737 v 585.627 c 0,82.566 67.173,149.738 149.738,149.738 h 53.216 c 82.566,0 149.738,-67.172 149.738,-149.738 V 149.737 C 202.954,67.172 135.782,0 53.216,0 Z"
             style="fill:#c6ece5;fill-opacity:1;fill-rule:nonzero;stroke:none"
             id="path346" /></g><g
           id="g348"
           transform="translate(564.7236,983.5508)"><path
             d="m 0,0 h -53.216 c -40.664,0 -78.895,-15.835 -107.649,-44.589 -28.754,-28.754 -44.589,-66.984 -44.589,-107.648 v -585.627 c 0,-40.664 15.835,-78.895 44.589,-107.649 28.754,-28.754 66.985,-44.589 107.649,-44.589 H 0 c 40.664,0 78.895,15.835 107.648,44.589 28.754,28.754 44.589,66.985 44.589,107.649 v 585.627 c 0,40.664 -15.835,78.894 -44.589,107.648 C 78.894,-15.835 40.664,0 0,0 m 0,-5 c 81.316,0 147.237,-65.92 147.237,-147.237 V -737.864 C 147.237,-819.182 81.316,-885.102 0,-885.102 h -53.216 c -81.318,0 -147.238,65.92 -147.238,147.238 v 585.627 C -200.454,-70.92 -134.534,-5 -53.216,-5 H 0"
             style="fill:#0c2722;fill-opacity:1;fill-rule:nonzero;stroke:none"
             id="path350" /></g><g
           id="g352"
           transform="translate(799.0498,421.4209)"><path
             d="m 0,0 c -4.689,0 -9.108,1.852 -12.443,5.214 l -97.846,98.647 c -6.99,7.047 -7.01,18.535 -0.043,25.607 l 11.253,11.423 c 3.34,3.39 7.775,5.257 12.488,5.257 4.69,0 9.109,-1.852 12.444,-5.213 L 23.698,42.287 c 6.99,-7.048 7.01,-18.534 0.043,-25.606 L 12.487,5.257 C 9.147,1.867 4.713,0 0,0"
             style="fill:#c6ece5;fill-opacity:1;fill-rule:nonzero;stroke:none"
             id="path354" /></g><g
           id="g356"
           transform="translate(712.458,572.5688)"><path
             d="m 0,0 c -5.809,0 -11.618,-2.25 -16.049,-6.748 l -11.253,-11.423 c -8.885,-9.019 -8.86,-23.65 0.055,-32.637 l 97.846,-98.648 c 4.426,-4.461 10.21,-6.692 15.993,-6.692 5.809,0 11.618,2.251 16.049,6.748 l 11.254,11.424 c 8.884,9.018 8.86,23.648 -0.055,32.637 L 15.994,-6.692 C 11.567,-2.23 5.784,0 0,0 m 0.001,-10 v 0 c 3.346,0 6.504,-1.327 8.893,-3.735 l 97.845,-98.646 c 5.073,-5.114 5.086,-13.447 0.032,-18.577 l -11.253,-11.424 c -2.393,-2.428 -5.563,-3.766 -8.926,-3.766 -3.346,0 -6.505,1.326 -8.894,3.734 l -97.845,98.648 c -5.072,5.112 -5.085,13.446 -0.032,18.577 l 11.254,11.423 c 2.393,2.428 5.563,3.766 8.926,3.766"
             style="fill:#0c2722;fill-opacity:1;fill-rule:nonzero;stroke:none"
             id="path358" /></g><g
           id="g360"
           transform="translate(799.0498,289.4062)"><path
             d="m 0,0 c -4.689,0 -9.108,1.852 -12.443,5.213 l -97.846,98.647 c -6.99,7.048 -7.01,18.535 -0.043,25.607 l 11.254,11.424 c 3.339,3.389 7.774,5.256 12.487,5.256 4.69,0 9.109,-1.851 12.444,-5.213 L 23.698,42.286 c 6.991,-7.047 7.01,-18.534 0.043,-25.606 L 12.487,5.256 C 9.147,1.866 4.713,0 0,0"
             style="fill:#c6ece5;fill-opacity:1;fill-rule:nonzero;stroke:none"
             id="path362" /></g><g
           id="g364"
           transform="translate(712.458,440.5537)"><path
             d="m 0,0 c -5.809,-0.001 -11.618,-2.251 -16.049,-6.748 l -11.253,-11.424 c -8.885,-9.018 -8.86,-23.648 0.055,-32.637 l 97.846,-98.646 c 4.426,-4.463 10.21,-6.692 15.993,-6.692 5.809,0 11.618,2.25 16.049,6.747 l 11.254,11.423 c 8.884,9.019 8.86,23.65 -0.055,32.637 L 15.994,-6.692 C 11.567,-2.23 5.784,0 0,0 m 0.001,-10 v 0 c 3.346,0 6.504,-1.326 8.893,-3.735 l 97.845,-98.647 c 5.073,-5.112 5.086,-13.446 0.032,-18.577 l -11.254,-11.423 c -2.392,-2.429 -5.562,-3.765 -8.925,-3.765 -3.346,0 -6.505,1.326 -8.894,3.734 l -97.845,98.646 c -5.072,5.114 -5.085,13.447 -0.032,18.578 l 11.254,11.422 c 2.393,2.429 5.563,3.766 8.926,3.767"
             style="fill:#0c2722;fill-opacity:1;fill-rule:nonzero;stroke:none"
             id="path366" /></g><g
           id="g368"
           transform="translate(799.0498,553.4365)"><path
             d="m 0,0 c -4.689,0 -9.108,1.852 -12.443,5.213 l -97.846,98.647 c -6.99,7.048 -7.01,18.535 -0.043,25.607 l 11.253,11.424 c 3.34,3.389 7.775,5.256 12.488,5.256 4.69,0 9.109,-1.851 12.444,-5.213 L 23.698,42.287 c 6.99,-7.048 7.01,-18.535 0.043,-25.607 L 12.487,5.257 C 9.147,1.867 4.713,0 0,0"
             style="fill:#c6ece5;fill-opacity:1;fill-rule:nonzero;stroke:none"
             id="path370" /></g><g
           id="g372"
           transform="translate(712.458,704.584)"><path
             d="m 0,0 c -5.809,0 -11.618,-2.25 -16.049,-6.748 l -11.253,-11.423 c -8.885,-9.019 -8.86,-23.649 0.055,-32.638 l 97.846,-98.646 c 4.426,-4.463 10.21,-6.692 15.993,-6.692 5.809,0 11.618,2.25 16.049,6.747 l 11.254,11.423 c 8.884,9.019 8.86,23.65 -0.055,32.638 L 15.994,-6.692 C 11.567,-2.23 5.784,0 0,0 m 0.001,-10 v 0 c 3.346,0 6.504,-1.326 8.893,-3.734 l 97.845,-98.647 c 5.073,-5.113 5.086,-13.447 0.032,-18.577 l -11.253,-11.424 c -2.393,-2.428 -5.563,-3.765 -8.926,-3.765 -3.346,0 -6.505,1.326 -8.894,3.734 l -97.845,98.647 c -5.072,5.113 -5.085,13.446 -0.032,18.577 l 11.254,11.423 c 2.393,2.429 5.563,3.766 8.926,3.766"
             style="fill:#0c2722;fill-opacity:1;fill-rule:nonzero;stroke:none"
             id="path374" /></g><g
           id="g376"
           transform="translate(799.0498,685.4517)"><path
             d="m 0,0 c -4.689,0 -9.108,1.852 -12.443,5.213 l -97.846,98.647 c -6.99,7.048 -7.01,18.536 -0.043,25.608 l 11.253,11.423 c 3.34,3.39 7.775,5.256 12.488,5.256 4.69,0 9.109,-1.851 12.444,-5.213 L 23.698,42.287 c 6.99,-7.048 7.01,-18.535 0.043,-25.606 L 12.487,5.257 C 9.147,1.867 4.713,0 0,0"
             style="fill:#c6ece5;fill-opacity:1;fill-rule:nonzero;stroke:none"
             id="path378" /></g><g
           id="g380"
           transform="translate(712.458,836.5991)"><path
             d="m 0,0 c -5.809,0 -11.618,-2.25 -16.049,-6.748 l -11.253,-11.423 c -8.885,-9.019 -8.86,-23.649 0.055,-32.637 l 97.846,-98.647 c 4.426,-4.462 10.21,-6.692 15.993,-6.692 5.809,0 11.618,2.25 16.049,6.748 l 11.254,11.423 c 8.884,9.018 8.86,23.649 -0.055,32.637 L 15.994,-6.692 C 11.567,-2.229 5.784,0 0,0 m 0.001,-10 v 0 c 3.346,0 6.504,-1.326 8.893,-3.734 l 97.845,-98.647 c 5.073,-5.113 5.086,-13.447 0.032,-18.577 l -11.253,-11.423 c -2.393,-2.429 -5.563,-3.766 -8.926,-3.766 -3.346,0 -6.505,1.326 -8.894,3.734 l -97.845,98.647 c -5.072,5.113 -5.085,13.447 -0.032,18.577 l 11.254,11.423 c 2.393,2.429 5.563,3.766 8.926,3.766"
             style="fill:#0c2722;fill-opacity:1;fill-rule:nonzero;stroke:none"
             id="path382" /></g><g
           id="g384"
           transform="translate(278.9497,421.4209)"><path
             d="M 0,0 C -4.713,0 -9.147,1.867 -12.487,5.257 L -23.74,16.681 c -6.968,7.072 -6.948,18.558 0.043,25.606 l 97.845,98.648 c 3.335,3.361 7.754,5.213 12.444,5.213 4.713,0 9.147,-1.867 12.487,-5.257 l 11.254,-11.423 c 6.966,-7.072 6.947,-18.56 -0.043,-25.607 L 12.444,5.214 C 9.109,1.852 4.69,0 0,0 Z"
             style="fill:#c6ece5;fill-opacity:1;fill-rule:nonzero;stroke:none"
             id="path386" /></g><g
           id="g388"
           transform="translate(365.5415,572.5688)"><path
             d="m 0,0 c -5.783,0 -11.567,-2.23 -15.993,-6.692 l -97.846,-98.647 c -8.915,-8.989 -8.94,-23.619 -0.055,-32.637 l 11.253,-11.424 c 4.431,-4.497 10.24,-6.748 16.049,-6.748 5.784,0 11.568,2.231 15.994,6.692 l 97.846,98.648 c 8.915,8.987 8.94,23.618 0.055,32.637 L 16.049,-6.748 C 11.618,-2.25 5.809,0 0,0 m 0,-10 c 3.363,0 6.533,-1.337 8.925,-3.766 l 11.254,-11.423 c 5.054,-5.131 5.04,-13.465 -0.031,-18.577 l -97.846,-98.648 c -2.389,-2.408 -5.547,-3.734 -8.894,-3.734 -3.363,0 -6.533,1.338 -8.925,3.766 l -11.253,11.424 c -5.054,5.13 -5.041,13.463 0.031,18.577 l 97.845,98.646 C -6.505,-11.327 -3.346,-10 0,-10"
             style="fill:#0c2722;fill-opacity:1;fill-rule:nonzero;stroke:none"
             id="path390" /></g><g
           id="g392"
           transform="translate(278.9502,289.4062)"><path
             d="M 0,0 C -4.713,0 -9.148,1.866 -12.488,5.256 L -23.741,16.68 c -6.967,7.072 -6.948,18.559 0.043,25.606 l 97.846,98.648 c 3.335,3.362 7.754,5.213 12.444,5.213 4.712,0 9.147,-1.867 12.486,-5.256 l 11.254,-11.424 c 6.967,-7.072 6.947,-18.559 -0.043,-25.607 L 12.443,5.214 C 9.109,1.852 4.689,0 0,0 Z"
             style="fill:#c6ece5;fill-opacity:1;fill-rule:nonzero;stroke:none"
             id="path394" /></g><g
           id="g396"
           transform="translate(365.5415,440.5537)"><path
             d="m 0,0 c -5.783,0 -11.567,-2.23 -15.993,-6.692 l -97.846,-98.648 c -8.915,-8.987 -8.94,-23.618 -0.055,-32.637 l 11.253,-11.423 c 4.431,-4.497 10.24,-6.747 16.049,-6.747 5.784,0 11.568,2.229 15.994,6.692 l 97.846,98.646 c 8.915,8.989 8.94,23.619 0.055,32.637 L 16.049,-6.748 C 11.618,-2.251 5.809,0 0,0 m 0,-10 c 3.363,0 6.533,-1.338 8.925,-3.767 l 11.254,-11.422 c 5.054,-5.131 5.04,-13.464 -0.031,-18.578 l -97.846,-98.646 c -2.389,-2.408 -5.547,-3.734 -8.894,-3.734 -3.363,0 -6.533,1.336 -8.925,3.765 l -11.253,11.423 c -5.054,5.131 -5.041,13.465 0.031,18.577 l 97.845,98.647 C -6.505,-11.326 -3.346,-10 0,-10"
             style="fill:#0c2722;fill-opacity:1;fill-rule:nonzero;stroke:none"
             id="path398" /></g><g
           id="g400"
           transform="translate(278.9497,553.4365)"><path
             d="M 0,0 C -4.713,0 -9.147,1.867 -12.487,5.257 L -23.74,16.68 c -6.968,7.072 -6.948,18.559 0.043,25.607 l 97.845,98.647 c 3.335,3.362 7.754,5.213 12.444,5.213 4.713,0 9.147,-1.867 12.487,-5.256 l 11.254,-11.424 c 6.966,-7.071 6.947,-18.559 -0.043,-25.607 L 12.444,5.213 C 9.109,1.852 4.69,0 0,0 Z"
             style="fill:#c6ece5;fill-opacity:1;fill-rule:nonzero;stroke:none"
             id="path402" /></g><g
           id="g404"
           transform="translate(365.5415,704.584)"><path
             d="m 0,0 c -5.783,0 -11.567,-2.23 -15.993,-6.692 l -97.846,-98.647 c -8.915,-8.988 -8.94,-23.619 -0.055,-32.638 l 11.253,-11.423 c 4.431,-4.497 10.24,-6.747 16.049,-6.747 5.784,0 11.568,2.229 15.994,6.692 l 97.846,98.646 c 8.915,8.989 8.94,23.619 0.055,32.638 L 16.049,-6.748 C 11.618,-2.25 5.809,0 0,0 m 0,-10 c 3.363,0 6.533,-1.337 8.925,-3.766 l 11.254,-11.423 c 5.054,-5.131 5.04,-13.464 -0.031,-18.577 l -97.846,-98.647 c -2.388,-2.408 -5.547,-3.734 -8.894,-3.734 -3.363,0 -6.533,1.337 -8.925,3.765 l -11.253,11.424 c -5.054,5.13 -5.041,13.464 0.031,18.577 l 97.845,98.647 C -6.505,-11.326 -3.346,-10 0,-10"
             style="fill:#0c2722;fill-opacity:1;fill-rule:nonzero;stroke:none"
             id="path406" /></g><g
           id="g408"
           transform="translate(278.9502,685.4517)"><path
             d="M 0,0 C -4.713,0 -9.148,1.867 -12.487,5.257 L -23.741,16.68 c -6.967,7.072 -6.947,18.559 0.043,25.607 l 97.846,98.647 c 3.335,3.362 7.754,5.213 12.444,5.213 4.712,0 9.147,-1.866 12.486,-5.256 l 11.254,-11.423 c 6.967,-7.072 6.948,-18.56 -0.043,-25.608 L 12.443,5.213 C 9.109,1.852 4.689,0 0,0 Z"
             style="fill:#c6ece5;fill-opacity:1;fill-rule:nonzero;stroke:none"
             id="path410" /></g><g
           id="g412"
           transform="translate(365.5415,836.5991)"><path
             d="m 0,0 c -5.783,0 -11.567,-2.229 -15.993,-6.692 l -97.846,-98.647 c -8.915,-8.988 -8.94,-23.619 -0.055,-32.637 l 11.253,-11.423 c 4.431,-4.498 10.24,-6.748 16.049,-6.748 5.784,0 11.568,2.23 15.994,6.692 l 97.846,98.647 c 8.915,8.988 8.94,23.618 0.055,32.637 L 16.049,-6.748 C 11.618,-2.25 5.809,0 0,0 m 0,-10 c 3.363,0 6.533,-1.337 8.925,-3.766 l 11.254,-11.423 c 5.054,-5.13 5.04,-13.464 -0.031,-18.577 l -97.846,-98.647 c -2.388,-2.408 -5.547,-3.734 -8.894,-3.734 -3.363,0 -6.533,1.337 -8.925,3.765 l -11.253,11.424 c -5.054,5.13 -5.041,13.464 0.031,18.577 l 97.845,98.647 C -6.505,-11.326 -3.346,-10 0,-10"
             style="fill:#0c2722;fill-opacity:1;fill-rule:nonzero;stroke:none"
             id="path414" /></g><g
           id="g416"
           transform="translate(570.4258,142.4541)"><path
             d="m 0,0 h -65.505 c -53.738,0 -97.3,43.563 -97.3,97.3 v 597.492 c 0,53.737 43.562,97.3 97.3,97.3 H 0 c 53.737,0 97.3,-43.563 97.3,-97.3 V 97.3 C 97.3,43.563 53.737,0 0,0"
             style="fill:#0c2722;fill-opacity:1;fill-rule:nonzero;stroke:none"
             id="path418" /></g><g
           id="g420"
           transform="translate(574.2744,186.459)"><path
             d="m 0,0 h -73.203 c -27.67,0 -50.1,22.431 -50.1,50.101 v 603.881 c 0,27.669 22.43,50.1 50.1,50.1 H 0 c 27.67,0 50.101,-22.431 50.101,-50.1 V 50.101 C 50.101,22.431 27.67,0 0,0"
             style="fill:#c6ece5;fill-opacity:1;fill-rule:nonzero;stroke:none"
             id="path422" /></g><g
           id="g424"
           transform="translate(473.416,704.9692)"><path
             d="m 0,0 c -17.646,0 -32.002,14.356 -32.002,32.003 0,17.646 14.356,32.002 32.002,32.002 h 129.398 c 17.647,0 32.003,-14.356 32.003,-32.002 C 161.401,14.356 147.045,0 129.398,0 Z"
             style="fill:#0c2722;fill-opacity:1;fill-rule:nonzero;stroke:none"
             id="path426" /></g><g
           id="g428"
           transform="translate(602.8145,778.9746)"><path
             d="m 0,0 h -129.398 c -23.161,0 -42.003,-18.842 -42.003,-42.002 0,-23.161 18.842,-42.003 42.003,-42.003 H 0 c 23.16,0 42.003,18.842 42.003,42.003 C 42.003,-18.842 23.16,0 0,0 m 0,-20 c 12.151,0 22.003,-9.851 22.003,-22.002 0,-12.152 -9.852,-22.003 -22.003,-22.003 h -129.398 c -12.152,0 -22.003,9.851 -22.003,22.003 0,12.151 9.851,22.002 22.003,22.002 L 0,-20"
             style="fill:#c6ece5;fill-opacity:1;fill-rule:nonzero;stroke:none"
             id="path430" /></g><g
           id="g432"
           transform="translate(504.3809,616.959)"><path
             d="m 0,0 c -17.646,0 -32.002,14.356 -32.002,32.003 0,17.646 14.356,32.002 32.002,32.002 h 67.469 c 17.646,0 32.003,-14.356 32.003,-32.002 C 99.472,14.356 85.115,0 67.469,0 Z"
             style="fill:#0c2722;fill-opacity:1;fill-rule:nonzero;stroke:none"
             id="path434" /></g><g
           id="g436"
           transform="translate(571.8496,690.9644)"><path
             d="m 0,0 h -67.469 c -23.16,0 -42.002,-18.842 -42.002,-42.002 0,-23.161 18.842,-42.003 42.002,-42.003 H 0 c 23.16,0 42.003,18.842 42.003,42.003 C 42.003,-18.842 23.16,0 0,0 m 0,-20 c 12.151,0 22.003,-9.851 22.003,-22.002 0,-12.152 -9.852,-22.003 -22.003,-22.003 h -67.469 c -12.151,0 -22.002,9.851 -22.002,22.003 0,12.151 9.851,22.002 22.002,22.002 L 0,-20"
             style="fill:#c6ece5;fill-opacity:1;fill-rule:nonzero;stroke:none"
             id="path438" /></g><g
           id="g440"
           transform="translate(473.416,793.8774)"><path
             d="m 0,0 c -17.646,0 -32.002,14.356 -32.002,32.003 0,17.646 14.356,32.002 32.002,32.002 h 129.398 c 17.647,0 32.003,-14.356 32.003,-32.002 C 161.401,14.356 147.045,0 129.398,0 Z"
             style="fill:#0c2722;fill-opacity:1;fill-rule:nonzero;stroke:none"
             id="path442" /></g><g
           id="g444"
           transform="translate(602.8145,867.8828)"><path
             d="m 0,0 h -129.398 c -23.161,0 -42.003,-18.842 -42.003,-42.002 0,-23.161 18.842,-42.003 42.003,-42.003 H 0 c 23.16,0 42.003,18.842 42.003,42.003 C 42.003,-18.842 23.16,0 0,0 m 0,-20 c 12.151,0 22.003,-9.851 22.003,-22.002 0,-12.152 -9.852,-22.003 -22.003,-22.003 h -129.398 c -12.152,0 -22.003,9.851 -22.003,22.003 0,12.151 9.851,22.002 22.003,22.002 L 0,-20"
             style="fill:#c6ece5;fill-opacity:1;fill-rule:nonzero;stroke:none"
             id="path446" /></g><path
           d="M 441.414,944.995 H 634.818 V 880.99 H 441.414 Z"
           style="fill:#0c2722;fill-opacity:1;fill-rule:nonzero;stroke:none"
           id="path448" /><g
           id="g450"
           transform="translate(644.8174,954.9951)"><path
             d="m 0,0 h -20 -173.404 -20 v -20 -44.005 -20 h 20 H -20 0 v 20 V -20 Z M -20,-64.005 H -193.404 V -20 H -20 Z"
             style="fill:#c6ece5;fill-opacity:1;fill-rule:nonzero;stroke:none"
             id="path452" /></g><g
           id="g454"
           transform="translate(473.416,308.9238)"><path
             d="m 0,0 c -17.646,0 -32.002,14.356 -32.002,32.002 0,17.646 14.356,32.003 32.002,32.003 h 129.398 c 17.647,0 32.003,-14.357 32.003,-32.003 C 161.401,14.356 147.045,0 129.398,0 Z"
             style="fill:#0c2722;fill-opacity:1;fill-rule:nonzero;stroke:none"
             id="path456" /></g><g
           id="g458"
           transform="translate(602.8145,382.9287)"><path
             d="m 0,0 h -129.398 c -23.161,0 -42.003,-18.843 -42.003,-42.003 0,-23.16 18.842,-42.002 42.003,-42.002 H 0 c 23.16,0 42.003,18.842 42.003,42.002 C 42.003,-18.843 23.16,0 0,0 m 0,-20 c 12.151,0 22.003,-9.851 22.003,-22.003 0,-12.151 -9.852,-22.002 -22.003,-22.002 h -129.398 c -12.152,0 -22.003,9.851 -22.003,22.002 0,12.152 9.851,22.003 22.003,22.003 H 0"
             style="fill:#c6ece5;fill-opacity:1;fill-rule:nonzero;stroke:none"
             id="path460" /></g><g
           id="g462"
           transform="translate(504.3809,396.9336)"><path
             d="m 0,0 c -17.646,0 -32.002,14.356 -32.002,32.003 0,17.645 14.356,32.002 32.002,32.002 h 67.469 c 17.646,0 32.003,-14.357 32.003,-32.002 C 99.472,14.356 85.115,0 67.469,0 Z"
             style="fill:#0c2722;fill-opacity:1;fill-rule:nonzero;stroke:none"
             id="path464" /></g><g
           id="g466"
           transform="translate(571.8496,470.9385)"><path
             d="m 0,0 h -67.469 c -23.16,0 -42.002,-18.842 -42.002,-42.002 0,-23.16 18.842,-42.003 42.002,-42.003 H 0 c 23.16,0 42.003,18.843 42.003,42.003 C 42.003,-18.842 23.16,0 0,0 m 0,-20 c 12.151,0 22.003,-9.851 22.003,-22.002 0,-12.152 -9.852,-22.003 -22.003,-22.003 h -67.469 c -12.151,0 -22.002,9.851 -22.002,22.003 0,12.151 9.851,22.002 22.002,22.002 L 0,-20"
             style="fill:#c6ece5;fill-opacity:1;fill-rule:nonzero;stroke:none"
             id="path468" /></g><g
           id="g470"
           transform="translate(473.416,220.0156)"><path
             d="m 0,0 c -17.646,0 -32.002,14.356 -32.002,32.002 0,17.646 14.356,32.003 32.002,32.003 h 129.398 c 17.647,0 32.003,-14.357 32.003,-32.003 C 161.401,14.356 147.045,0 129.398,0 Z"
             style="fill:#0c2722;fill-opacity:1;fill-rule:nonzero;stroke:none"
             id="path472" /></g><g
           id="g474"
           transform="translate(602.8145,294.0205)"><path
             d="m 0,0 h -129.398 c -23.161,0 -42.003,-18.843 -42.003,-42.003 0,-23.16 18.842,-42.002 42.003,-42.002 H 0 c 23.16,0 42.003,18.842 42.003,42.002 C 42.003,-18.843 23.16,0 0,0 m 0,-20 c 12.151,0 22.003,-9.851 22.003,-22.003 0,-12.151 -9.852,-22.002 -22.003,-22.002 h -129.398 c -12.152,0 -22.003,9.851 -22.003,22.002 0,12.152 9.851,22.003 22.003,22.003 H 0"
             style="fill:#c6ece5;fill-opacity:1;fill-rule:nonzero;stroke:none"
             id="path476" /></g><path
           d="M 441.414,196.908 H 634.818 V 132.903 H 441.414 Z"
           style="fill:#0c2722;fill-opacity:1;fill-rule:nonzero;stroke:none"
           id="path478" /><g
           id="g480"
           transform="translate(644.8174,206.9082)"><path
             d="m 0,0 h -20 -173.404 -20 v -20 -44.005 -20 h 20 H -20 0 v 20 V -20 Z M -20,-64.005 H -193.404 V -20 H -20 Z"
             style="fill:#c6ece5;fill-opacity:1;fill-rule:nonzero;stroke:none"
             id="path482" /></g><g
           id="g484"
           transform="translate(423.5454,88.8984)"><path
             d="m 0,0 c -14.539,0 -26.367,13.459 -26.367,30.002 0,2.151 0.924,25.532 32.937,182.024 16.063,78.525 49.77,161.523 82.368,241.787 32.256,79.425 65.61,161.553 81.304,238.27 26.642,130.24 30.161,159.777 31.663,172.39 0.352,2.955 0.606,5.09 1.029,7.415 3.212,17.667 13.009,28.214 26.206,28.214 14.539,0 26.367,-13.459 26.367,-30.003 0,-2.151 -0.924,-25.532 -32.937,-182.024 C 206.527,609.648 172.904,526.908 140.387,446.893 108.09,367.414 74.693,285.229 58.898,208.019 32.256,77.78 28.738,48.242 27.235,35.629 26.883,32.673 26.628,30.538 26.206,28.213 22.993,10.547 13.196,0 0,0"
             style="fill:#0c2722;fill-opacity:1;fill-rule:nonzero;stroke:none"
             id="path486" /></g><g
           id="g488"
           transform="translate(652.6855,999)"><path
             d="m 0,0 c -14.224,0 -31.161,-9.569 -36.045,-36.424 -0.477,-2.627 -0.761,-5.008 -1.12,-8.023 -1.488,-12.49 -4.973,-41.74 -31.53,-171.568 -15.51,-75.813 -48.687,-157.506 -80.773,-236.51 -32.767,-80.686 -66.651,-164.118 -82.899,-243.545 -31.543,-154.192 -33.141,-180.351 -33.141,-184.03 0,-9.947 3.309,-19.467 9.316,-26.809 6.86,-8.384 16.72,-13.193 27.051,-13.193 14.224,0 31.162,9.569 36.045,36.424 0.478,2.627 0.762,5.008 1.12,8.023 1.488,12.49 4.973,41.74 31.531,171.568 15.61,76.306 48.831,158.055 80.957,237.113 32.687,80.436 66.486,163.611 82.715,242.943 31.543,154.191 33.14,180.35 33.14,184.029 0,9.947 -3.308,19.468 -9.315,26.809 C 20.191,-4.809 10.331,0 0,0 m 0,-20 c 9.039,0 16.367,-8.955 16.367,-20.002 0,0 0,-20.002 -32.734,-180.021 -31.757,-155.241 -131.753,-324.023 -163.672,-480.056 -32.734,-160.019 -30.73,-168.999 -32.734,-180.021 -2.004,-11.021 -7.328,-20.002 -16.367,-20.002 h -0.001 c -9.039,0 -16.367,8.956 -16.367,20.002 0,0 0,20.002 32.735,180.021 31.757,155.241 131.915,324.815 163.671,480.056 32.735,160.019 30.731,168.999 32.735,180.021 C -14.363,-28.98 -9.039,-20 0,-20"
             style="fill:#c6ece5;fill-opacity:1;fill-rule:nonzero;stroke:none"
             id="path490" /></g><g
           id="g492"
           transform="translate(652.6855,88)"><path
             d="m 0,0 c -13.197,0 -22.994,10.547 -26.206,28.213 -0.423,2.325 -0.677,4.46 -1.028,7.415 -1.503,12.613 -5.022,42.149 -31.664,172.392 -15.795,77.209 -49.193,159.394 -81.49,238.873 -32.516,80.015 -66.139,162.755 -82.182,241.182 -32.013,156.492 -32.938,179.874 -32.938,182.025 0,16.543 11.828,30.002 26.367,30.002 13.198,0 22.994,-10.547 26.206,-28.213 0.423,-2.326 0.678,-4.462 1.03,-7.418 1.503,-12.615 5.022,-42.157 31.663,-172.388 15.694,-76.717 49.048,-158.845 81.304,-238.27 C -56.341,373.549 -22.634,290.552 -6.57,212.027 25.443,55.535 26.367,32.153 26.367,30.002 26.367,13.459 14.539,0 0,0"
             style="fill:#0c2722;fill-opacity:1;fill-rule:nonzero;stroke:none"
             id="path494" /></g><g
           id="g496"
           transform="translate(423.5449,998.1021)"><path
             d="m 0,0 c -10.331,0 -20.191,-4.809 -27.052,-13.193 -6.007,-7.341 -9.315,-16.862 -9.315,-26.809 0,-3.679 1.597,-29.838 33.14,-184.03 16.228,-79.331 50.028,-162.506 82.715,-242.942 32.127,-79.058 65.347,-160.808 80.957,-237.113 26.558,-129.829 30.042,-159.078 31.531,-171.568 0.359,-3.014 0.642,-5.396 1.12,-8.023 4.883,-26.856 21.821,-36.424 36.045,-36.424 10.331,0 20.191,4.809 27.051,13.193 6.007,7.341 9.316,16.863 9.316,26.809 0,3.679 -1.598,29.838 -33.141,184.029 -16.248,79.428 -50.132,162.861 -82.899,243.546 -32.085,79.004 -65.263,160.697 -80.772,236.51 -26.558,129.828 -30.043,159.078 -31.531,171.568 -0.359,3.015 -0.643,5.396 -1.12,8.023 C 31.161,-9.569 14.223,0 0,0 m 0,-20 c 9.04,0 14.363,-8.981 16.367,-20.002 2.005,-11.022 0,-20.003 32.735,-180.021 31.757,-155.241 131.915,-324.815 163.671,-480.056 32.735,-160.018 32.735,-180.021 32.735,-180.021 0,-11.047 -7.328,-20.002 -16.367,-20.002 -9.039,0 -14.364,8.98 -16.368,20.002 -2.003,11.022 0,20.003 -32.734,180.021 C 148.12,-544.046 48.125,-375.264 16.367,-220.023 -16.367,-60.005 -16.367,-40.002 -16.367,-40.002 -16.367,-28.956 -9.039,-20 0,-20"
             style="fill:#c6ece5;fill-opacity:1;fill-rule:nonzero;stroke:none"
             id="path498" /></g></g></g></g></svg>
